<svg xmlns="http://www.w3.org/2000/svg" viewBox="0 0 96.07 111.51"><defs><style>.cls-1{fill:#ddd8c4;}</style></defs><g id="Layer_2" data-name="Layer 2"><g id="final_logo" data-name="final logo"><path class="cls-1" d="M96.61,109.51a13,13,0,0,1-2.38-3.36,63.86,63.86,0,0,1-2.86-6c-2.52-5.85-4.61-11.89-6.55-18Q81.19,71,78.33,59.47c-2-7.93-3.73-15.92-5.1-24a155,155,0,0,1-2.34-21.37c0-.75,0-1.49,0-2.23,0,0-1.17.64-1,.56l-2.45,1.4-2.45,1.43c-.13.08-1,.49-1,.61a135.53,135.53,0,0,0,1.92,20.79c1.26,8,2.93,16,4.84,23.87s4,15.47,6.38,23.1c2,6.32,4.1,12.62,6.62,18.75.9,2.21,1.86,4.4,3,6.52a21,21,0,0,0,2.52,4,6.85,6.85,0,0,0,.52.55,10.76,10.76,0,0,0,1-.56l2.46-1.41,2.44-1.42c.11-.06,1-.63,1-.61Z" transform="translate(-0.54 -2)"/><path class="cls-1" d="M23.4,87.62a43.89,43.89,0,0,0-8.54,3c-2.92,1.45-5.75,3.16-8.53,4.87a19.57,19.57,0,0,0-2.47,1.78A8.51,8.51,0,0,0,.59,104.7c.67,5.41,6.33,9.73,11.71,8.63a10.53,10.53,0,0,0,2.8-1c2.09-1.11,4.13-2.33,6.17-3.54a20.39,20.39,0,0,0,2.24-1.45,23.33,23.33,0,0,0,5.74-7.3,191.17,191.17,0,0,0,9.58-19.62c2.86-6.7,5.47-13.5,8.08-20.29s5-13.36,7.65-20c4.73-11.69,10.3-23.76,20.26-31.94.9-.74,1.84-1.44,2.8-2.1l-.12.08.72-.48.36-.22c.4-.25-.26.15.14-.08-1.67,1-3.41,2.12-5.16,3l.35-.19.7-.35-.13.07c3.6-1.74,10-3.59,12.38,1,1.25,2.43.77,5.54.21,8.09a23.2,23.2,0,0,1-3.91,8.68,29.84,29.84,0,0,1-7.42,7l.12-.08-1.1.72-.26.16c-.14.09-.55.33.13-.07L78.81,31l.29-.16h0l-.26.14-.57.3-1.13.56.13-.06a57.42,57.42,0,0,1-14.64,4.7c-2,.37-4.11.44-6.15.78a46.85,46.85,0,0,0-13.92,4.62c-2.78,1.46-5.5,3.07-8.19,4.69-1.07.64-2.13,1.32-3.14,2a28.34,28.34,0,0,0-5,4.61,20.16,20.16,0,0,0-4.83,12A18,18,0,0,0,26.3,78.88a15,15,0,0,0,6.6,3.83,17.56,17.56,0,0,0,8.4-.2,34.59,34.59,0,0,0,7.94-3c1.72-.89,3.38-1.88,5-2.85,1.14-.66,2.32-1.29,3.39-2a11.6,11.6,0,0,0,2.58-2.51c2.84-3.8,3.28-9,2.19-13.55a16.36,16.36,0,0,0-3.24-6.72,11.36,11.36,0,0,0-6.9-3.94A11.21,11.21,0,0,0,45,49c-2.1,1.11-4.14,2.33-6.18,3.54a20.79,20.79,0,0,0-2,1.31A12.67,12.67,0,0,0,34.57,56a20.41,20.41,0,0,0-3.46,6.63,11.06,11.06,0,0,0-.27,6.49C32,72.73,35.47,74.72,39,75.34a24.26,24.26,0,0,0,6.14,0l6.31-.49,20.64-1.62,15.44-1.21.82-.06a4.53,4.53,0,0,0,1-.56L91.85,70l2.45-1.43c.23-.14.74-.59,1-.61l-8.64.68L68.79,70.07,53.7,71.25c-.91.08-1.82.13-2.74.22A15.78,15.78,0,0,1,42,70a8.41,8.41,0,0,1-4.56-7.68A15.46,15.46,0,0,1,39,56.08a18.43,18.43,0,0,1,3.14-4.88,12.23,12.23,0,0,1,2-1.76l-.11.08.12-.08q1.62-1-2.83,1.63c-3,1.66-4,2.22-2.89,1.67l.21-.1-.13.06a11.68,11.68,0,0,1,8.23-.47A11.44,11.44,0,0,1,53.2,57.1a18.33,18.33,0,0,1,2.21,14.7,12.41,12.41,0,0,1-4.8,6.91l.12-.08-.15.1c-1.07.69-.16.17,2.75-1.58S57.2,75,56.15,75.52l-.24.12-.79.4.12-.06c-4,1.93-8.58,3.43-13.07,3.11a14.66,14.66,0,0,1-10.29-5.73c-4.55-5.89-4.61-14.57-1-20.9A26.5,26.5,0,0,1,39.07,44l-.12.08c2.56-1.72,1.74-.87-3.57,2l.65-.35c.35-.17.69-.35,1-.51l-.13.06a46.44,46.44,0,0,1,10.71-3.61,49.35,49.35,0,0,1,5.54-.83c.49-.05,1-.06,1.45-.13a55.44,55.44,0,0,0,8.33-2,56.32,56.32,0,0,0,6.65-2.56c1.25-.58,2.47-1.21,3.67-1.88,3-1.66,6-3.32,8.87-5.2a27.54,27.54,0,0,0,10.72-12.4,21.08,21.08,0,0,0,1.65-8.72,6.14,6.14,0,0,0-2.31-4.84,7.54,7.54,0,0,0-5.48-.94c-3.15.47-6,2-8.7,3.57a89.08,89.08,0,0,0-8.26,5,40.29,40.29,0,0,0-4.09,3.4,53,53,0,0,0-7.94,9.54,96.82,96.82,0,0,0-7,13.11c-2.11,4.65-4,9.4-5.81,14.17-3.66,9.62-7.23,19.28-11.13,28.81-2,4.84-4.06,9.65-6.34,14.37-1.13,2.34-2.3,4.65-3.53,6.93a59.6,59.6,0,0,1-3.9,6.58,17.21,17.21,0,0,1-4.1,4.11l.12-.08-.37.24,5.94-3.43-.25.13.13-.07A9.67,9.67,0,0,1,10.05,106c-2-2.27-3.19-5.41-2.26-8.4a11,11,0,0,1,4.54-5.48l-.12.08.46-.3.23-.14Q10.17,93.45,7.36,95l1.12-.57-.13.06a44.66,44.66,0,0,1,8.12-2.84,5.33,5.33,0,0,0,1-.56L20,89.66c.82-.47,1.63-1,2.44-1.43a5,5,0,0,1,1-.61Z" transform="translate(-0.54 -2)"/></g></g></svg>